<?xml version="1.0" encoding="utf-8"?>
<!-- Generator: Adobe Illustrator 16.0.0, SVG Export Plug-In . SVG Version: 6.00 Build 0)  -->
<!DOCTYPE svg PUBLIC "-//W3C//DTD SVG 1.1//EN" "http://www.w3.org/Graphics/SVG/1.1/DTD/svg11.dtd">
<svg version="1.1" id="Layer_1" xmlns="http://www.w3.org/2000/svg" xmlns:xlink="http://www.w3.org/1999/xlink" x="0px" y="0px"
	 width="141.5px" height="141.25px" viewBox="0 0 141.5 141.25" enable-background="new 0 0 141.5 141.25" xml:space="preserve">
<circle fill="#727272" stroke="#FFFFFF" stroke-miterlimit="10" cx="70.75" cy="69.796" r="68.5"/>
<circle fill="#282828" cx="70.75" cy="69.796" r="58.773"/>
<path fill="#D8D8D8" d="M60.447,65.958l36.756-36.757c1.193-1.193,1.193-3.127,0-4.321c-1.193-1.193-3.127-1.193-4.32,0
	L53.992,63.771c-0.604,0.603-0.899,1.396-0.893,2.187c-0.007,0.791,0.289,1.584,0.893,2.188l38.891,38.891
	c1.193,1.193,3.127,1.193,4.32,0s1.193-3.127,0-4.321L60.447,65.958z"/>
<path fill="#D8D8D8" d="M39.447,65.958l36.756-36.757c1.193-1.193,1.193-3.127,0-4.321c-1.193-1.193-3.127-1.193-4.32,0
	L32.992,63.771c-0.604,0.603-0.899,1.396-0.893,2.187c-0.007,0.791,0.289,1.584,0.893,2.188l38.891,38.891
	c1.193,1.193,3.127,1.193,4.32,0s1.193-3.127,0-4.321L39.447,65.958z"/>
</svg>
