<?xml version="1.0" encoding="utf-8"?>
<!-- Generator: Adobe Illustrator 16.0.0, SVG Export Plug-In . SVG Version: 6.00 Build 0)  -->
<!DOCTYPE svg PUBLIC "-//W3C//DTD SVG 1.1//EN" "http://www.w3.org/Graphics/SVG/1.1/DTD/svg11.dtd">
<svg version="1.1" id="Layer_1" xmlns="http://www.w3.org/2000/svg" xmlns:xlink="http://www.w3.org/1999/xlink" x="0px" y="0px"
	 width="141.5px" height="141.25px" viewBox="0 0 141.5 141.25" enable-background="new 0 0 141.5 141.25" xml:space="preserve">
<path fill="#282828" d="M130.463,119.016c0,5.297-4.293,9.59-9.589,9.59H20.626c-5.296,0-9.589-4.293-9.589-9.59V19.61
	c0-5.295,4.293-9.589,9.589-9.589h100.248c5.296,0,9.589,4.293,9.589,9.589V119.016z"/>
<g>
	<path fill="#FFFFFF" d="M73.948,85.566h-7.72v-6.617c0-2.059,0.238-3.915,0.717-5.569c0.478-1.653,1.139-3.144,1.985-4.467
		c0.845-1.324,1.801-2.518,2.867-3.584c1.064-1.065,2.15-2.113,3.254-3.143l3.088-2.757c1.838-1.47,3.364-3.161,4.577-5.073
		c1.214-1.911,1.819-4.301,1.819-7.169c0-2.058-0.368-3.896-1.104-5.514c-0.736-1.617-1.729-2.978-2.978-4.081
		c-1.251-1.103-2.702-1.947-4.356-2.537c-1.654-0.587-3.438-0.882-5.35-0.882c-3.97,0-7.188,1.213-9.65,3.64
		c-2.464,2.426-3.989,5.515-4.577,9.264l-7.5-1.323c1.103-5.735,3.621-10.238,7.555-13.511c3.933-3.271,8.768-4.908,14.503-4.908
		c2.94,0,5.716,0.424,8.327,1.269c2.607,0.846,4.869,2.095,6.781,3.75c1.912,1.654,3.438,3.695,4.578,6.121
		c1.139,2.426,1.709,5.184,1.709,8.272c0,2.354-0.259,4.412-0.771,6.176c-0.516,1.765-1.232,3.347-2.15,4.743
		c-0.92,1.397-2.004,2.666-3.254,3.805c-1.251,1.141-2.574,2.299-3.97,3.474c-1.545,1.251-2.851,2.39-3.916,3.419
		c-1.065,1.03-1.931,2.114-2.593,3.253c-0.66,1.141-1.141,2.408-1.434,3.805c-0.295,1.396-0.441,3.088-0.441,5.073v5.071H73.948z
		 M76.816,101.448c0,1.544-0.553,2.923-1.654,4.136c-1.104,1.213-2.537,1.82-4.302,1.82c-1.765,0-3.198-0.607-4.301-1.82
		s-1.654-2.592-1.654-4.136s0.552-2.923,1.654-4.136c1.103-1.213,2.537-1.819,4.301-1.819c1.764,0,3.199,0.606,4.302,1.819
		S76.816,99.904,76.816,101.448z"/>
</g>
</svg>
